<svg width="16" height="16" viewBox="0 0 16 16" fill="none" xmlns="http://www.w3.org/2000/svg">
<g clip-path="url(#clip0_3802_45)">
<path fill-rule="evenodd" clip-rule="evenodd" d="M7.99992 1.83334C4.59416 1.83334 1.83325 4.59426 1.83325 8.00001C1.83325 11.4057 4.59416 14.1667 7.99992 14.1667C11.4057 14.1667 14.1666 11.4057 14.1666 8.00001C14.1666 4.59426 11.4057 1.83334 7.99992 1.83334ZM0.833252 8.00001C0.833252 4.04197 4.04188 0.833344 7.99992 0.833344C11.958 0.833344 15.1666 4.04197 15.1666 8.00001C15.1666 11.9581 11.958 15.1667 7.99992 15.1667C4.04188 15.1667 0.833252 11.9581 0.833252 8.00001ZM7.99992 4.83334C8.27605 4.83334 8.49992 5.0572 8.49992 5.33334V7.79288L10.0201 9.31314C10.2154 9.50841 10.2154 9.82494 10.0201 10.0202C9.82485 10.2155 9.50832 10.2155 9.31305 10.0202L7.64638 8.35354C7.55258 8.25981 7.49992 8.13261 7.49992 8.00001V5.33334C7.49992 5.0572 7.72378 4.83334 7.99992 4.83334Z" fill="#777777"/>
</g>
<defs>
<clipPath id="clip0_3802_45">
<rect width="16" height="16" fill="white"/>
</clipPath>
</defs>
</svg>
