<svg width="16" height="16" viewBox="0 0 16 16" fill="none" xmlns="http://www.w3.org/2000/svg">
<path fill-rule="evenodd" clip-rule="evenodd" d="M8 5.5C6.61929 5.5 5.5 6.61929 5.5 8C5.5 9.38073 6.61929 10.5 8 10.5C9.38073 10.5 10.5 9.38073 10.5 8C10.5 6.61929 9.38073 5.5 8 5.5ZM6.5 8C6.5 7.1716 7.1716 6.5 8 6.5C8.8284 6.5 9.5 7.1716 9.5 8C9.5 8.8284 8.8284 9.5 8 9.5C7.1716 9.5 6.5 8.8284 6.5 8Z" fill="#777777"/>
<path fill-rule="evenodd" clip-rule="evenodd" d="M7.99992 2.16666C4.9905 2.16666 2.96344 3.96946 1.78697 5.4979L1.76575 5.52546C1.49968 5.87101 1.25463 6.18927 1.08838 6.56559C0.910345 6.96859 0.833252 7.40779 0.833252 7.99999C0.833252 8.59219 0.910345 9.03139 1.08838 9.43439C1.25463 9.81072 1.49968 10.129 1.76575 10.4745L1.78697 10.5021C2.96344 12.0305 4.9905 13.8333 7.99992 13.8333C11.0093 13.8333 13.0364 12.0305 14.2129 10.5021L14.2341 10.4745C14.5002 10.129 14.7452 9.81072 14.9115 9.43439C15.0895 9.03139 15.1666 8.59219 15.1666 7.99999C15.1666 7.40779 15.0895 6.96859 14.9115 6.56559C14.7452 6.18926 14.5002 5.871 14.2341 5.52544L14.2129 5.4979C13.0364 3.96946 11.0093 2.16666 7.99992 2.16666ZM2.5794 6.10786C3.66568 4.6966 5.43349 3.16666 7.99992 3.16666C10.5663 3.16666 12.3342 4.6966 13.4205 6.10786C13.7129 6.48772 13.8841 6.71472 13.9967 6.96966C14.1021 7.20799 14.1666 7.49926 14.1666 7.99999C14.1666 8.50072 14.1021 8.79199 13.9967 9.03032C13.8841 9.28526 13.7129 9.51226 13.4205 9.89212C12.3342 11.3034 10.5663 12.8333 7.99992 12.8333C5.43349 12.8333 3.66568 11.3034 2.5794 9.89212C2.28701 9.51226 2.11575 9.28526 2.00309 9.03032C1.89781 8.79199 1.83325 8.50072 1.83325 7.99999C1.83325 7.49926 1.89781 7.20799 2.00309 6.96966C2.11575 6.71472 2.28701 6.48772 2.5794 6.10786Z" fill="#777777"/>
</svg>
